<?xml version="1.0" encoding="UTF-8"?>
<svg id="Layer_1" data-name="Layer 1" xmlns="http://www.w3.org/2000/svg" xmlns:xlink="http://www.w3.org/1999/xlink" viewBox="0 0 472.89 123.03">
  <defs>
    <style>
      .cls-1 {
        fill: #0054a1;
      }

      .cls-2 {
        fill: url(#linear-gradient);
        fill-rule: evenodd;
      }
    </style>
    <linearGradient id="linear-gradient" x1="15.26" y1="46.67" x2="457.63" y2="46.67" gradientUnits="userSpaceOnUse">
      <stop offset="0" stop-color="#07a588"/>
      <stop offset=".28" stop-color="#03a18a"/>
      <stop offset=".7" stop-color="#253d8e"/>
      <stop offset="1" stop-color="#2e3191"/>
    </linearGradient>
  </defs>
  <g>
    <path class="cls-1" d="M21.71,108.46v-15.73h-5.6v-1.96h13.42v1.96h-5.62v15.73h-2.2Z"/>
    <path class="cls-1" d="M48.27,108.46l-4.48-7.03h-3.56v7.03h-2.2v-17.69h7.11c3.24,0,5.57,2.07,5.57,5.33s-2.2,4.94-4.61,5.14l4.78,7.22h-2.6ZM48.43,96.1c0-2.02-1.46-3.37-3.56-3.37h-4.64v6.76h4.64c2.1,0,3.56-1.41,3.56-3.4Z"/>
    <path class="cls-1" d="M72.39,108.46l-1.56-3.95h-8.81l-1.56,3.95h-2.52l7.14-17.69h2.73l7.11,17.69h-2.52ZM66.42,93.02l-3.74,9.55h7.51l-3.77-9.55Z"/>
    <path class="cls-1" d="M82.8,108.46v-17.69h6.05c5.52,0,9.07,3.85,9.07,8.86s-3.56,8.83-9.07,8.83h-6.05ZM95.63,99.63c0-3.82-2.41-6.9-6.79-6.9h-3.85v13.77h3.85c4.3,0,6.79-3.08,6.79-6.87Z"/>
    <path class="cls-1" d="M106.94,108.46v-17.69h2.2v17.69h-2.2Z"/>
    <path class="cls-1" d="M131.38,108.46l-10.32-14.11v14.11h-2.2v-17.69h2.25l10.19,13.82v-13.82h2.2v17.69h-2.12Z"/>
    <path class="cls-1" d="M142.5,99.63c0-5.51,4.06-9.15,9.1-9.15,3.16,0,5.33,1.38,6.87,3.29l-1.75,1.11c-1.12-1.43-3-2.44-5.12-2.44-3.87,0-6.82,2.94-6.82,7.19s2.94,7.19,6.82,7.19c2.12,0,3.87-1.01,4.78-1.91v-3.58h-6.1v-1.96h8.28v6.36c-1.64,1.86-4.06,3.08-6.95,3.08-5.04,0-9.1-3.69-9.1-9.18Z"/>
    <path class="cls-1" d="M180.15,108.46v-17.69h7.11c3.56,0,5.55,2.44,5.55,5.33s-2.02,5.33-5.55,5.33h-4.91v7.03h-2.2ZM190.52,96.1c0-1.99-1.43-3.37-3.53-3.37h-4.64v6.74h4.64c2.1,0,3.53-1.38,3.53-3.37Z"/>
    <path class="cls-1" d="M211.54,108.46l-4.48-7.03h-3.56v7.03h-2.2v-17.69h7.11c3.24,0,5.57,2.07,5.57,5.33s-2.2,4.94-4.61,5.14l4.78,7.22h-2.6ZM211.7,96.1c0-2.02-1.46-3.37-3.56-3.37h-4.64v6.76h4.64c2.1,0,3.56-1.41,3.56-3.4Z"/>
    <path class="cls-1" d="M223.04,108.46v-17.69h2.2v17.69h-2.2Z"/>
    <path class="cls-1" d="M240.25,108.46l-7.14-17.69h2.52l5.97,15.28,5.97-15.28h2.52l-7.11,17.69h-2.73Z"/>
    <path class="cls-1" d="M269.17,108.46l-1.56-3.95h-8.81l-1.56,3.95h-2.52l7.14-17.69h2.73l7.11,17.69h-2.52ZM263.21,93.02l-3.74,9.55h7.51l-3.77-9.55Z"/>
    <path class="cls-1" d="M282.18,108.46v-15.73h-5.6v-1.96h13.42v1.96h-5.62v15.73h-2.2Z"/>
    <path class="cls-1" d="M298.5,108.46v-17.69h11.59v1.96h-9.39v5.7h9.2v1.97h-9.2v6.1h9.39v1.96h-11.59Z"/>
    <path class="cls-1" d="M331.33,108.46v-17.69h2.2v15.73h8.22v1.96h-10.42Z"/>
    <path class="cls-1" d="M350.27,108.46v-17.69h2.2v17.69h-2.2Z"/>
    <path class="cls-1" d="M377.31,108.46v-14.88l-5.99,14.88h-.9l-6.02-14.88v14.88h-2.2v-17.69h3.16l5.52,13.64,5.49-13.64h3.16v17.69h-2.2Z"/>
    <path class="cls-1" d="M389.23,108.46v-17.69h2.2v17.69h-2.2Z"/>
    <path class="cls-1" d="M405.52,108.46v-15.73h-5.6v-1.96h13.42v1.96h-5.62v15.73h-2.2Z"/>
    <path class="cls-1" d="M421.84,108.46v-17.69h11.59v1.96h-9.39v5.7h9.2v1.97h-9.2v6.1h9.39v1.96h-11.59Z"/>
    <path class="cls-1" d="M442.51,108.46v-17.69h6.05c5.52,0,9.07,3.85,9.07,8.86s-3.55,8.83-9.07,8.83h-6.05ZM455.35,99.63c0-3.82-2.41-6.9-6.79-6.9h-3.85v13.77h3.85c4.3,0,6.79-3.08,6.79-6.87Z"/>
  </g>
  <path class="cls-2" d="M357.58,59.61V18.06h15.58v57.13h-18.02c-4.97,0-9.3-2.72-11.59-6.75-6.12-10.55-12.24-21.09-18.37-31.63-1.05-1.89-3.06-3.17-5.37-3.17v41.55h-15.58V18.06h18.02c4.97,0,9.3,2.72,11.59,6.75,6.12,10.55,12.24,21.09,18.37,31.63,1.08,1.96,3.13,3.17,5.37,3.17M457.63,33.64h-59.09c-1.09,0-1.99.9-1.99,1.99v1.21c0,1.09.88,1.98,1.97,1.99h45.84c7.3,0,13.27,5.97,13.27,13.27v9.81c0,7.3-5.97,13.27-13.27,13.27h-49.42c-7.71,0-13.96-6.25-13.96-13.96v-1.62h59.09c1.1,0,1.99-.9,1.99-1.99v-1.21c0-1.1-.9-1.99-1.99-1.99h-45.81c-7.3,0-13.27-5.97-13.27-13.27v-9.81c0-7.3,5.97-13.27,13.27-13.27h49.6c7.61,0,13.79,6.17,13.79,13.79v1.79ZM119.16,75.22c-7.3,0-13.27-5.97-13.27-13.27v-30.62c0-7.3,5.97-13.27,13.27-13.27h25.06v-3.84l15.57,11.69-15.57,11.69v-3.95h-20.77c-1.1,0-1.99.9-1.99,1.99v22.02c0,1.1.9,1.99,1.99,1.99h11.15l-10.38,7.79,10.38,7.79h-15.45ZM144.22,55.75v3.9h20.76c1.1,0,1.99-.9,1.99-1.99v-22.02c0-1.1-.9-1.99-1.99-1.99h-11.07l10.31-7.73-10.46-7.85h15.52c7.3,0,13.27,5.97,13.27,13.27v30.62c0,7.3-5.97,13.27-13.27,13.27h-25.06v3.9l-15.57-11.69,15.57-11.69ZM15.26,75.2V18.06h24.51c3.38.27,5.7,2.61,6.55,5.79l8.26,33.01.69,2.74h2.41l.69-2.74,8.26-33.01c.85-3.18,3.16-5.52,6.55-5.79h24.85v57.13h-15.58v-41.53h-.34c-1.86,0-3.4,1.34-3.72,3.11l-9.53,38.43h-24.74l-9.53-38.43c-.32-1.77-1.87-3.11-3.72-3.11h0v41.53h-15.58ZM280.84,75.2V18.06h15.58v57.13h-15.58ZM190.49,75.2V18.06h24.51c3.38.27,5.7,2.61,6.55,5.79l8.26,33.01.69,2.74h2.41l.69-2.74,8.26-33.01c.85-3.18,3.16-5.52,6.55-5.79h24.85v57.13h-15.58v-41.53h-.34c-1.86,0-3.4,1.34-3.72,3.11l-9.53,38.43h-24.74l-9.53-38.43c-.32-1.77-1.87-3.11-3.72-3.11h0v41.53h-15.58Z"/>
</svg>